<svg xmlns="http://www.w3.org/2000/svg" fill="none" viewBox="0 0 46.66 35">
  <path fill-rule="evenodd" clip-rule="evenodd" d="M42.5505 3.53227H28.494C28.433 3.53227 28.3805 3.54734 28.3194 3.54985L24.3893 0V7.67104L24.3966 7.66728C24.4345 9.88232 26.25 11.6642 28.494 11.6642L42.5505 11.6667C44.8202 11.6667 46.6577 9.84465 46.6577 7.59947C46.6577 5.35177 44.819 3.53227 42.5505 3.53227Z" fill="black"/>
  <path fill-rule="evenodd" clip-rule="evenodd" d="M45.4826 28.4964L35.7582 19.2734C34.9545 18.5101 33.8928 18.1454 32.8407 18.1642C32.8133 18.1642 32.7894 18.1572 32.7643 18.1572H14.4213C14.3066 18.1572 13.4516 18.1654 13.1375 18.2125L9.24914 14.8484V20.8367L1.1751 28.4976C-0.3917 29.9867 -0.3917 32.3969 1.1751 33.8848C2.7431 35.3716 5.28676 35.3716 6.85356 33.8848L15.4017 25.7758H31.2572L39.8053 33.8848C41.3722 35.3716 43.9134 35.3716 45.4826 33.8848C47.0494 32.3969 47.0494 29.9844 45.4826 28.4964Z" fill="black"/>
</svg>
